<svg xmlns="http://www.w3.org/2000/svg" version="1.1" xmlns:xlink="http://www.w3.org/1999/xlink" xmlns:svgjs="http://svgjs.dev/svgjs" width="1440" height="560" preserveAspectRatio="none" viewBox="0 0 1440 560"><g mask="url(&quot;#SvgjsMask1037&quot;)" fill="none"><rect width="1440" height="560" x="0" y="0" fill="rgba(219, 217, 217, 1)"></rect><path d="M0,371.065C85.121,370.558,173.148,425.816,249.597,388.38C326.968,350.492,348.624,253.443,392.091,179.062C440.909,95.524,530.335,21.428,520.274,-74.804C510.213,-171.033,408.32,-225.873,342.355,-296.652C279.029,-364.6,232.259,-462.356,141.347,-481.384C50.916,-500.312,-26.632,-418.638,-115.227,-392.427C-203.573,-366.29,-308.843,-388.364,-378.17,-327.686C-449.59,-265.176,-479.459,-164.398,-484.068,-69.598C-488.467,20.893,-443.856,103.178,-403.049,184.066C-363.699,262.065,-330.765,354.599,-251.516,391.367C-173.64,427.499,-85.848,371.577,0,371.065" fill="#9e9898"></path><path d="M1440 1141.642C1566.988 1156.9650000000001 1706.367 1210.963 1815.939 1144.973 1925.645 1078.903 1935.271 926.9680000000001 1989.271 810.844 2043.716 693.762 2146.715 588.694 2134.388 460.16200000000003 2121.956 330.536 2016.49 232.402 1924.914 139.82 1838.224 52.17700000000002 1743.627-41.15700000000004 1621.552-58.309999999999945 1504.111-74.81200000000001 1403.894 16.109000000000037 1290.446 50.66699999999997 1178.509 84.76499999999999 1049.657 69.13400000000001 959.259 143.43599999999998 862.965 222.584 795.561 341.644 785.299 465.868 775.242 587.606 845.004 697.886 904.651 804.486 960.069 903.528 1022.1379999999999 1000.294 1118.172 1060.775 1213.702 1120.9389999999999 1327.916 1128.117 1440 1141.642" fill="#ffffff"></path></g><defs><mask id="SvgjsMask1037"><rect width="1440" height="560" fill="#ffffff"></rect></mask></defs></svg>