<svg xmlns="http://www.w3.org/2000/svg" version="1.1" xmlns:xlink="http://www.w3.org/1999/xlink" xmlns:svgjs="http://svgjs.dev/svgjs" width="1440" height="560" preserveAspectRatio="none" viewBox="0 0 1440 560"><g mask="url(&quot;#SvgjsMask3255&quot;)" fill="none"><rect width="1440" height="560" x="0" y="0" fill="url(&quot;#SvgjsLinearGradient3256&quot;)"></rect><path d="M-50.2 549.61L-50.2 549.61" stroke="rgba(35, 35, 35, 1)" stroke-width="1.5"></path><path d="M-50.2 549.61L72.35 527.98" stroke="rgba(35, 35, 35, 1)" stroke-width="1.5"></path><path d="M-50.2 549.61L-59.09 697.03" stroke="rgba(35, 35, 35, 1)" stroke-width="1.5"></path><path d="M-50.2 549.61L104.25 676.25" stroke="rgba(35, 35, 35, 1)" stroke-width="1.5"></path><path d="M-50.2 549.61L87.28 376.34" stroke="rgba(35, 35, 35, 1)" stroke-width="1.5"></path><path d="M-50.2 549.61L245.88 489.05" stroke="rgba(35, 35, 35, 1)" stroke-width="1.5"></path><path d="M-50.2 549.61L252.54 351.2" stroke="rgba(35, 35, 35, 1)" stroke-width="1.5"></path><path d="M-59.09 697.03L-59.09 697.03" stroke="rgba(35, 35, 35, 1)" stroke-width="1.5"></path><path d="M-59.09 697.03L104.25 676.25" stroke="rgba(35, 35, 35, 1)" stroke-width="1.5"></path><path d="M-59.09 697.03L72.35 527.98" stroke="rgba(35, 35, 35, 1)" stroke-width="1.5"></path><path d="M-59.09 697.03L87.28 376.34" stroke="rgba(35, 35, 35, 1)" stroke-width="1.5"></path><path d="M87.28 376.34L87.28 376.34" stroke="rgba(35, 35, 35, 1)" stroke-width="1.5"></path><path d="M87.28 376.34L72.35 527.98" stroke="rgba(35, 35, 35, 1)" stroke-width="1.5"></path><path d="M87.28 376.34L252.54 351.2" stroke="rgba(35, 35, 35, 1)" stroke-width="1.5"></path><path d="M72.35 527.98L72.35 527.98" stroke="rgba(35, 35, 35, 1)" stroke-width="1.5"></path><path d="M72.35 527.98L104.25 676.25" stroke="rgba(35, 35, 35, 1)" stroke-width="1.5"></path><path d="M72.35 527.98L245.88 489.05" stroke="rgba(35, 35, 35, 1)" stroke-width="1.5"></path><path d="M104.25 676.25L104.25 676.25" stroke="rgba(35, 35, 35, 1)" stroke-width="1.5"></path><path d="M252.54 351.2L252.54 351.2" stroke="rgba(35, 35, 35, 1)" stroke-width="1.5"></path><path d="M252.54 351.2L389.06 355.79" stroke="rgba(35, 35, 35, 1)" stroke-width="1.5"></path><path d="M252.54 351.2L245.88 489.05" stroke="rgba(35, 35, 35, 1)" stroke-width="1.5"></path><path d="M245.88 489.05L245.88 489.05" stroke="rgba(35, 35, 35, 1)" stroke-width="1.5"></path><path d="M245.88 489.05L362.35 533.07" stroke="rgba(35, 35, 35, 1)" stroke-width="1.5"></path><path d="M389.06 355.79L389.06 355.79" stroke="rgba(35, 35, 35, 1)" stroke-width="1.5"></path><path d="M389.06 355.79L552.46 385.09" stroke="rgba(35, 35, 35, 1)" stroke-width="1.5"></path><path d="M389.06 355.79L362.35 533.07" stroke="rgba(35, 35, 35, 1)" stroke-width="1.5"></path><path d="M389.06 355.79L517.86 494.07" stroke="rgba(35, 35, 35, 1)" stroke-width="1.5"></path><path d="M389.06 355.79L245.88 489.05" stroke="rgba(35, 35, 35, 1)" stroke-width="1.5"></path><path d="M362.35 533.07L362.35 533.07" stroke="rgba(35, 35, 35, 1)" stroke-width="1.5"></path><path d="M362.35 533.07L401.26 665.05" stroke="rgba(35, 35, 35, 1)" stroke-width="1.5"></path><path d="M362.35 533.07L517.86 494.07" stroke="rgba(35, 35, 35, 1)" stroke-width="1.5"></path><path d="M362.35 533.07L252.54 351.2" stroke="rgba(35, 35, 35, 1)" stroke-width="1.5"></path><path d="M362.35 533.07L540.19 669.55" stroke="rgba(35, 35, 35, 1)" stroke-width="1.5"></path><path d="M401.26 665.05L401.26 665.05" stroke="rgba(35, 35, 35, 1)" stroke-width="1.5"></path><path d="M401.26 665.05L540.19 669.55" stroke="rgba(35, 35, 35, 1)" stroke-width="1.5"></path><path d="M401.26 665.05L517.86 494.07" stroke="rgba(35, 35, 35, 1)" stroke-width="1.5"></path><path d="M401.26 665.05L245.88 489.05" stroke="rgba(35, 35, 35, 1)" stroke-width="1.5"></path><path d="M401.26 665.05L104.25 676.25" stroke="rgba(35, 35, 35, 1)" stroke-width="1.5"></path><path d="M401.26 665.05L696.59 708.05" stroke="rgba(35, 35, 35, 1)" stroke-width="1.5"></path><path d="M552.46 385.09L552.46 385.09" stroke="rgba(35, 35, 35, 1)" stroke-width="1.5"></path><path d="M552.46 385.09L517.86 494.07" stroke="rgba(35, 35, 35, 1)" stroke-width="1.5"></path><path d="M552.46 385.09L695.11 381.9" stroke="rgba(35, 35, 35, 1)" stroke-width="1.5"></path><path d="M552.46 385.09L685.28 521.21" stroke="rgba(35, 35, 35, 1)" stroke-width="1.5"></path><path d="M552.46 385.09L698.12 229.29" stroke="rgba(35, 35, 35, 1)" stroke-width="1.5"></path><path d="M517.86 494.07L517.86 494.07" stroke="rgba(35, 35, 35, 1)" stroke-width="1.5"></path><path d="M517.86 494.07L685.28 521.21" stroke="rgba(35, 35, 35, 1)" stroke-width="1.5"></path><path d="M517.86 494.07L540.19 669.55" stroke="rgba(35, 35, 35, 1)" stroke-width="1.5"></path><path d="M540.19 669.55L540.19 669.55" stroke="rgba(35, 35, 35, 1)" stroke-width="1.5"></path><path d="M540.19 669.55L696.59 708.05" stroke="rgba(35, 35, 35, 1)" stroke-width="1.5"></path><path d="M698.12 229.29L698.12 229.29" stroke="rgba(35, 35, 35, 1)" stroke-width="1.5"></path><path d="M698.12 229.29L695.11 381.9" stroke="rgba(35, 35, 35, 1)" stroke-width="1.5"></path><path d="M698.12 229.29L816.73 358.95" stroke="rgba(35, 35, 35, 1)" stroke-width="1.5"></path><path d="M695.11 381.9L695.11 381.9" stroke="rgba(35, 35, 35, 1)" stroke-width="1.5"></path><path d="M695.11 381.9L816.73 358.95" stroke="rgba(35, 35, 35, 1)" stroke-width="1.5"></path><path d="M695.11 381.9L685.28 521.21" stroke="rgba(35, 35, 35, 1)" stroke-width="1.5"></path><path d="M685.28 521.21L685.28 521.21" stroke="rgba(35, 35, 35, 1)" stroke-width="1.5"></path><path d="M685.28 521.21L696.59 708.05" stroke="rgba(35, 35, 35, 1)" stroke-width="1.5"></path><path d="M685.28 521.21L540.19 669.55" stroke="rgba(35, 35, 35, 1)" stroke-width="1.5"></path><path d="M696.59 708.05L696.59 708.05" stroke="rgba(35, 35, 35, 1)" stroke-width="1.5"></path><path d="M696.59 708.05L789.59 708.08" stroke="rgba(35, 35, 35, 1)" stroke-width="1.5"></path><path d="M816.73 358.95L816.73 358.95" stroke="rgba(35, 35, 35, 1)" stroke-width="1.5"></path><path d="M816.73 358.95L981.21 404.34" stroke="rgba(35, 35, 35, 1)" stroke-width="1.5"></path><path d="M816.73 358.95L685.28 521.21" stroke="rgba(35, 35, 35, 1)" stroke-width="1.5"></path><path d="M789.59 708.08L789.59 708.08" stroke="rgba(35, 35, 35, 1)" stroke-width="1.5"></path><path d="M789.59 708.08L685.28 521.21" stroke="rgba(35, 35, 35, 1)" stroke-width="1.5"></path><path d="M789.59 708.08L1011.35 680.3" stroke="rgba(35, 35, 35, 1)" stroke-width="1.5"></path><path d="M789.59 708.08L989.15 554.81" stroke="rgba(35, 35, 35, 1)" stroke-width="1.5"></path><path d="M1004.46 -49.83L1004.46 -49.83" stroke="rgba(35, 35, 35, 1)" stroke-width="1.5"></path><path d="M1004.46 -49.83L1108.67 -90.87" stroke="rgba(35, 35, 35, 1)" stroke-width="1.5"></path><path d="M1004.46 -49.83L1116.32 49.85" stroke="rgba(35, 35, 35, 1)" stroke-width="1.5"></path><path d="M1004.46 -49.83L982.55 102.45" stroke="rgba(35, 35, 35, 1)" stroke-width="1.5"></path><path d="M1004.46 -49.83L989.12 206.19" stroke="rgba(35, 35, 35, 1)" stroke-width="1.5"></path><path d="M1004.46 -49.83L1118.4 200.12" stroke="rgba(35, 35, 35, 1)" stroke-width="1.5"></path><path d="M1004.46 -49.83L1261.02 77.54" stroke="rgba(35, 35, 35, 1)" stroke-width="1.5"></path><path d="M982.55 102.45L982.55 102.45" stroke="rgba(35, 35, 35, 1)" stroke-width="1.5"></path><path d="M982.55 102.45L989.12 206.19" stroke="rgba(35, 35, 35, 1)" stroke-width="1.5"></path><path d="M982.55 102.45L1116.32 49.85" stroke="rgba(35, 35, 35, 1)" stroke-width="1.5"></path><path d="M982.55 102.45L1118.4 200.12" stroke="rgba(35, 35, 35, 1)" stroke-width="1.5"></path><path d="M982.55 102.45L1108.67 -90.87" stroke="rgba(35, 35, 35, 1)" stroke-width="1.5"></path><path d="M982.55 102.45L1261.02 77.54" stroke="rgba(35, 35, 35, 1)" stroke-width="1.5"></path><path d="M989.12 206.19L989.12 206.19" stroke="rgba(35, 35, 35, 1)" stroke-width="1.5"></path><path d="M989.12 206.19L1118.4 200.12" stroke="rgba(35, 35, 35, 1)" stroke-width="1.5"></path><path d="M989.12 206.19L981.21 404.34" stroke="rgba(35, 35, 35, 1)" stroke-width="1.5"></path><path d="M989.12 206.19L1116.32 49.85" stroke="rgba(35, 35, 35, 1)" stroke-width="1.5"></path><path d="M989.12 206.19L1098.91 383.42" stroke="rgba(35, 35, 35, 1)" stroke-width="1.5"></path><path d="M981.21 404.34L981.21 404.34" stroke="rgba(35, 35, 35, 1)" stroke-width="1.5"></path><path d="M981.21 404.34L1098.91 383.42" stroke="rgba(35, 35, 35, 1)" stroke-width="1.5"></path><path d="M981.21 404.34L1100.06 491.35" stroke="rgba(35, 35, 35, 1)" stroke-width="1.5"></path><path d="M981.21 404.34L989.15 554.81" stroke="rgba(35, 35, 35, 1)" stroke-width="1.5"></path><path d="M981.21 404.34L1118.4 200.12" stroke="rgba(35, 35, 35, 1)" stroke-width="1.5"></path><path d="M989.15 554.81L989.15 554.81" stroke="rgba(35, 35, 35, 1)" stroke-width="1.5"></path><path d="M989.15 554.81L1011.35 680.3" stroke="rgba(35, 35, 35, 1)" stroke-width="1.5"></path><path d="M989.15 554.81L1100.06 491.35" stroke="rgba(35, 35, 35, 1)" stroke-width="1.5"></path><path d="M989.15 554.81L1098.91 383.42" stroke="rgba(35, 35, 35, 1)" stroke-width="1.5"></path><path d="M989.15 554.81L1161.99 707.8" stroke="rgba(35, 35, 35, 1)" stroke-width="1.5"></path><path d="M1011.35 680.3L1011.35 680.3" stroke="rgba(35, 35, 35, 1)" stroke-width="1.5"></path><path d="M1011.35 680.3L1161.99 707.8" stroke="rgba(35, 35, 35, 1)" stroke-width="1.5"></path><path d="M1108.67 -90.87L1108.67 -90.87" stroke="rgba(35, 35, 35, 1)" stroke-width="1.5"></path><path d="M1108.67 -90.87L1116.32 49.85" stroke="rgba(35, 35, 35, 1)" stroke-width="1.5"></path><path d="M1108.67 -90.87L1300.21 -51.69" stroke="rgba(35, 35, 35, 1)" stroke-width="1.5"></path><path d="M1116.32 49.85L1116.32 49.85" stroke="rgba(35, 35, 35, 1)" stroke-width="1.5"></path><path d="M1116.32 49.85L1261.02 77.54" stroke="rgba(35, 35, 35, 1)" stroke-width="1.5"></path><path d="M1116.32 49.85L1118.4 200.12" stroke="rgba(35, 35, 35, 1)" stroke-width="1.5"></path><path d="M1118.4 200.12L1118.4 200.12" stroke="rgba(35, 35, 35, 1)" stroke-width="1.5"></path><path d="M1118.4 200.12L1259.8 252.33" stroke="rgba(35, 35, 35, 1)" stroke-width="1.5"></path><path d="M1098.91 383.42L1098.91 383.42" stroke="rgba(35, 35, 35, 1)" stroke-width="1.5"></path><path d="M1098.91 383.42L1100.06 491.35" stroke="rgba(35, 35, 35, 1)" stroke-width="1.5"></path><path d="M1100.06 491.35L1100.06 491.35" stroke="rgba(35, 35, 35, 1)" stroke-width="1.5"></path><path d="M1161.99 707.8L1161.99 707.8" stroke="rgba(35, 35, 35, 1)" stroke-width="1.5"></path><path d="M1161.99 707.8L1292.39 681.92" stroke="rgba(35, 35, 35, 1)" stroke-width="1.5"></path><path d="M1161.99 707.8L1100.06 491.35" stroke="rgba(35, 35, 35, 1)" stroke-width="1.5"></path><path d="M1161.99 707.8L1303.98 491.37" stroke="rgba(35, 35, 35, 1)" stroke-width="1.5"></path><path d="M1300.21 -51.69L1300.21 -51.69" stroke="rgba(35, 35, 35, 1)" stroke-width="1.5"></path><path d="M1300.21 -51.69L1412.32 -111.44" stroke="rgba(35, 35, 35, 1)" stroke-width="1.5"></path><path d="M1300.21 -51.69L1261.02 77.54" stroke="rgba(35, 35, 35, 1)" stroke-width="1.5"></path><path d="M1261.02 77.54L1261.02 77.54" stroke="rgba(35, 35, 35, 1)" stroke-width="1.5"></path><path d="M1261.02 77.54L1259.8 252.33" stroke="rgba(35, 35, 35, 1)" stroke-width="1.5"></path><path d="M1261.02 77.54L1118.4 200.12" stroke="rgba(35, 35, 35, 1)" stroke-width="1.5"></path><path d="M1261.02 77.54L1448.82 96.79" stroke="rgba(35, 35, 35, 1)" stroke-width="1.5"></path><path d="M1261.02 77.54L1388.86 250.97" stroke="rgba(35, 35, 35, 1)" stroke-width="1.5"></path><path d="M1259.8 252.33L1259.8 252.33" stroke="rgba(35, 35, 35, 1)" stroke-width="1.5"></path><path d="M1259.8 252.33L1388.86 250.97" stroke="rgba(35, 35, 35, 1)" stroke-width="1.5"></path><path d="M1259.8 252.33L1241.65 392.53" stroke="rgba(35, 35, 35, 1)" stroke-width="1.5"></path><path d="M1241.65 392.53L1241.65 392.53" stroke="rgba(35, 35, 35, 1)" stroke-width="1.5"></path><path d="M1241.65 392.53L1303.98 491.37" stroke="rgba(35, 35, 35, 1)" stroke-width="1.5"></path><path d="M1241.65 392.53L1098.91 383.42" stroke="rgba(35, 35, 35, 1)" stroke-width="1.5"></path><path d="M1241.65 392.53L1100.06 491.35" stroke="rgba(35, 35, 35, 1)" stroke-width="1.5"></path><path d="M1241.65 392.53L1437.27 358" stroke="rgba(35, 35, 35, 1)" stroke-width="1.5"></path><path d="M1241.65 392.53L1388.86 250.97" stroke="rgba(35, 35, 35, 1)" stroke-width="1.5"></path><path d="M1303.98 491.37L1303.98 491.37" stroke="rgba(35, 35, 35, 1)" stroke-width="1.5"></path><path d="M1303.98 491.37L1453.58 513.9" stroke="rgba(35, 35, 35, 1)" stroke-width="1.5"></path><path d="M1303.98 491.37L1437.27 358" stroke="rgba(35, 35, 35, 1)" stroke-width="1.5"></path><path d="M1303.98 491.37L1292.39 681.92" stroke="rgba(35, 35, 35, 1)" stroke-width="1.5"></path><path d="M1292.39 681.92L1292.39 681.92" stroke="rgba(35, 35, 35, 1)" stroke-width="1.5"></path><path d="M1292.39 681.92L1453.58 513.9" stroke="rgba(35, 35, 35, 1)" stroke-width="1.5"></path><path d="M1292.39 681.92L1100.06 491.35" stroke="rgba(35, 35, 35, 1)" stroke-width="1.5"></path><path d="M1292.39 681.92L1011.35 680.3" stroke="rgba(35, 35, 35, 1)" stroke-width="1.5"></path><path d="M1412.32 -111.44L1412.32 -111.44" stroke="rgba(35, 35, 35, 1)" stroke-width="1.5"></path><path d="M1412.32 -111.44L1557.34 -60.29" stroke="rgba(35, 35, 35, 1)" stroke-width="1.5"></path><path d="M1412.32 -111.44L1448.82 96.79" stroke="rgba(35, 35, 35, 1)" stroke-width="1.5"></path><path d="M1448.82 96.79L1448.82 96.79" stroke="rgba(35, 35, 35, 1)" stroke-width="1.5"></path><path d="M1448.82 96.79L1604.21 45.6" stroke="rgba(35, 35, 35, 1)" stroke-width="1.5"></path><path d="M1448.82 96.79L1388.86 250.97" stroke="rgba(35, 35, 35, 1)" stroke-width="1.5"></path><path d="M1448.82 96.79L1557.34 -60.29" stroke="rgba(35, 35, 35, 1)" stroke-width="1.5"></path><path d="M1388.86 250.97L1388.86 250.97" stroke="rgba(35, 35, 35, 1)" stroke-width="1.5"></path><path d="M1388.86 250.97L1437.27 358" stroke="rgba(35, 35, 35, 1)" stroke-width="1.5"></path><path d="M1437.27 358L1437.27 358" stroke="rgba(35, 35, 35, 1)" stroke-width="1.5"></path><path d="M1437.27 358L1453.58 513.9" stroke="rgba(35, 35, 35, 1)" stroke-width="1.5"></path><path d="M1437.27 358L1607 401.43" stroke="rgba(35, 35, 35, 1)" stroke-width="1.5"></path><path d="M1453.58 513.9L1453.58 513.9" stroke="rgba(35, 35, 35, 1)" stroke-width="1.5"></path><path d="M1453.58 513.9L1586.92 546.93" stroke="rgba(35, 35, 35, 1)" stroke-width="1.5"></path><path d="M1453.58 513.9L1607 401.43" stroke="rgba(35, 35, 35, 1)" stroke-width="1.5"></path><path d="M1557.34 -60.29L1557.34 -60.29" stroke="rgba(35, 35, 35, 1)" stroke-width="1.5"></path><path d="M1557.34 -60.29L1604.21 45.6" stroke="rgba(35, 35, 35, 1)" stroke-width="1.5"></path><path d="M1604.21 45.6L1604.21 45.6" stroke="rgba(35, 35, 35, 1)" stroke-width="1.5"></path><path d="M1586.54 239.86L1586.54 239.86" stroke="rgba(35, 35, 35, 1)" stroke-width="1.5"></path><path d="M1586.54 239.86L1607 401.43" stroke="rgba(35, 35, 35, 1)" stroke-width="1.5"></path><path d="M1586.54 239.86L1437.27 358" stroke="rgba(35, 35, 35, 1)" stroke-width="1.5"></path><path d="M1586.54 239.86L1604.21 45.6" stroke="rgba(35, 35, 35, 1)" stroke-width="1.5"></path><path d="M1586.54 239.86L1388.86 250.97" stroke="rgba(35, 35, 35, 1)" stroke-width="1.5"></path><path d="M1607 401.43L1607 401.43" stroke="rgba(35, 35, 35, 1)" stroke-width="1.5"></path><path d="M1607 401.43L1586.92 546.93" stroke="rgba(35, 35, 35, 1)" stroke-width="1.5"></path><path d="M1607 401.43L1388.86 250.97" stroke="rgba(35, 35, 35, 1)" stroke-width="1.5"></path><path d="M1607 401.43L1594.58 703.4" stroke="rgba(35, 35, 35, 1)" stroke-width="1.5"></path><path d="M1586.92 546.93L1586.92 546.93" stroke="rgba(35, 35, 35, 1)" stroke-width="1.5"></path><path d="M1586.92 546.93L1594.58 703.4" stroke="rgba(35, 35, 35, 1)" stroke-width="1.5"></path><path d="M1586.92 546.93L1437.27 358" stroke="rgba(35, 35, 35, 1)" stroke-width="1.5"></path><path d="M1586.92 546.93L1303.98 491.37" stroke="rgba(35, 35, 35, 1)" stroke-width="1.5"></path><path d="M1586.92 546.93L1586.54 239.86" stroke="rgba(35, 35, 35, 1)" stroke-width="1.5"></path><path d="M1594.58 703.4L1594.58 703.4" stroke="rgba(35, 35, 35, 1)" stroke-width="1.5"></path><path d="M1594.58 703.4L1453.58 513.9" stroke="rgba(35, 35, 35, 1)" stroke-width="1.5"></path><path d="M1594.58 703.4L1292.39 681.92" stroke="rgba(35, 35, 35, 1)" stroke-width="1.5"></path><path d="M1594.58 703.4L1303.98 491.37" stroke="rgba(35, 35, 35, 1)" stroke-width="1.5"></path><path d="M1594.58 703.4L1437.27 358" stroke="rgba(35, 35, 35, 1)" stroke-width="1.5"></path><circle r="5" cx="-50.2" cy="549.61" fill="rgba(35, 35, 35, 1)"></circle><circle r="5" cx="-59.09" cy="697.03" fill="rgba(35, 35, 35, 1)"></circle><circle r="5" cx="87.28" cy="376.34" fill="rgba(35, 35, 35, 1)"></circle><circle r="5" cx="72.35" cy="527.98" fill="rgba(35, 35, 35, 1)"></circle><circle r="5" cx="104.25" cy="676.25" fill="rgba(35, 35, 35, 1)"></circle><circle r="5" cx="252.54" cy="351.2" fill="rgba(35, 35, 35, 1)"></circle><circle r="5" cx="245.88" cy="489.05" fill="rgba(35, 35, 35, 1)"></circle><circle r="5" cx="389.06" cy="355.79" fill="rgba(35, 35, 35, 1)"></circle><circle r="5" cx="362.35" cy="533.07" fill="rgba(35, 35, 35, 1)"></circle><circle r="5" cx="401.26" cy="665.05" fill="rgba(35, 35, 35, 1)"></circle><circle r="5" cx="552.46" cy="385.09" fill="rgba(35, 35, 35, 1)"></circle><circle r="5" cx="517.86" cy="494.07" fill="rgba(35, 35, 35, 1)"></circle><circle r="5" cx="540.19" cy="669.55" fill="rgba(35, 35, 35, 1)"></circle><circle r="5" cx="698.12" cy="229.29" fill="rgba(35, 35, 35, 1)"></circle><circle r="5" cx="695.11" cy="381.9" fill="rgba(35, 35, 35, 1)"></circle><circle r="5" cx="685.28" cy="521.21" fill="rgba(35, 35, 35, 1)"></circle><circle r="5" cx="696.59" cy="708.05" fill="rgba(35, 35, 35, 1)"></circle><circle r="5" cx="816.73" cy="358.95" fill="rgba(35, 35, 35, 1)"></circle><circle r="5" cx="789.59" cy="708.08" fill="rgba(35, 35, 35, 1)"></circle><circle r="5" cx="1004.46" cy="-49.83" fill="rgba(35, 35, 35, 1)"></circle><circle r="5" cx="982.55" cy="102.45" fill="rgba(35, 35, 35, 1)"></circle><circle r="5" cx="989.12" cy="206.19" fill="rgba(35, 35, 35, 1)"></circle><circle r="5" cx="981.21" cy="404.34" fill="rgba(35, 35, 35, 1)"></circle><circle r="5" cx="989.15" cy="554.81" fill="rgba(35, 35, 35, 1)"></circle><circle r="5" cx="1011.35" cy="680.3" fill="rgba(35, 35, 35, 1)"></circle><circle r="5" cx="1108.67" cy="-90.87" fill="rgba(35, 35, 35, 1)"></circle><circle r="5" cx="1116.32" cy="49.85" fill="rgba(35, 35, 35, 1)"></circle><circle r="5" cx="1118.4" cy="200.12" fill="rgba(35, 35, 35, 1)"></circle><circle r="5" cx="1098.91" cy="383.42" fill="rgba(35, 35, 35, 1)"></circle><circle r="5" cx="1100.06" cy="491.35" fill="rgba(35, 35, 35, 1)"></circle><circle r="5" cx="1161.99" cy="707.8" fill="rgba(35, 35, 35, 1)"></circle><circle r="5" cx="1300.21" cy="-51.69" fill="rgba(35, 35, 35, 1)"></circle><circle r="5" cx="1261.02" cy="77.54" fill="rgba(35, 35, 35, 1)"></circle><circle r="5" cx="1259.8" cy="252.33" fill="rgba(35, 35, 35, 1)"></circle><circle r="5" cx="1241.65" cy="392.53" fill="rgba(35, 35, 35, 1)"></circle><circle r="5" cx="1303.98" cy="491.37" fill="rgba(35, 35, 35, 1)"></circle><circle r="5" cx="1292.39" cy="681.92" fill="rgba(35, 35, 35, 1)"></circle><circle r="5" cx="1412.32" cy="-111.44" fill="rgba(35, 35, 35, 1)"></circle><circle r="5" cx="1448.82" cy="96.79" fill="rgba(35, 35, 35, 1)"></circle><circle r="5" cx="1388.86" cy="250.97" fill="rgba(35, 35, 35, 1)"></circle><circle r="5" cx="1437.27" cy="358" fill="rgba(35, 35, 35, 1)"></circle><circle r="5" cx="1453.58" cy="513.9" fill="rgba(35, 35, 35, 1)"></circle><circle r="5" cx="1557.34" cy="-60.29" fill="rgba(35, 35, 35, 1)"></circle><circle r="5" cx="1604.21" cy="45.6" fill="rgba(35, 35, 35, 1)"></circle><circle r="5" cx="1586.54" cy="239.86" fill="rgba(35, 35, 35, 1)"></circle><circle r="5" cx="1607" cy="401.43" fill="rgba(35, 35, 35, 1)"></circle><circle r="5" cx="1586.92" cy="546.93" fill="rgba(35, 35, 35, 1)"></circle><circle r="5" cx="1594.58" cy="703.4" fill="rgba(35, 35, 35, 1)"></circle><path d="M108.76 532.34L108.76 532.34" stroke="hsl(0, 0%, 100%)" stroke-width="1.5"></path><path d="M108.76 532.34L194.16 544.22" stroke="hsl(0, 0%, 100%)" stroke-width="1.5"></path><path d="M108.76 532.34L78.11 669.02" stroke="hsl(0, 0%, 100%)" stroke-width="1.5"></path><path d="M108.76 532.34L-73.02 497.4" stroke="hsl(0, 0%, 100%)" stroke-width="1.5"></path><path d="M108.76 532.34L259.6 707.45" stroke="hsl(0, 0%, 100%)" stroke-width="1.5"></path><path d="M108.76 532.34L-56.81 701.84" stroke="hsl(0, 0%, 100%)" stroke-width="1.5"></path><path d="M108.76 532.34L355.08 673.33" stroke="hsl(0, 0%, 100%)" stroke-width="1.5"></path><path d="M355.08 673.33L355.08 673.33" stroke="hsl(0, 0%, 100%)" stroke-width="1.5"></path><path d="M355.08 673.33L259.6 707.45" stroke="hsl(0, 0%, 100%)" stroke-width="1.5"></path><path d="M355.08 673.33L527.48 678.08" stroke="hsl(0, 0%, 100%)" stroke-width="1.5"></path><path d="M355.08 673.33L399.64 488.41" stroke="hsl(0, 0%, 100%)" stroke-width="1.5"></path><path d="M355.08 673.33L515.43 544.32" stroke="hsl(0, 0%, 100%)" stroke-width="1.5"></path><path d="M850.2 514.78L850.2 514.78" stroke="hsl(0, 0%, 100%)" stroke-width="1.5"></path><path d="M850.2 514.78L789.7 389.99" stroke="hsl(0, 0%, 100%)" stroke-width="1.5"></path><path d="M850.2 514.78L1002.78 527.23" stroke="hsl(0, 0%, 100%)" stroke-width="1.5"></path><path d="M850.2 514.78L854.55 675.37" stroke="hsl(0, 0%, 100%)" stroke-width="1.5"></path><path d="M850.2 514.78L667.93 495.63" stroke="hsl(0, 0%, 100%)" stroke-width="1.5"></path><path d="M850.2 514.78L978.05 675.12" stroke="hsl(0, 0%, 100%)" stroke-width="1.5"></path><path d="M1310.73 -57.66L1310.73 -57.66" stroke="hsl(0, 0%, 100%)" stroke-width="1.5"></path><path d="M1310.73 -57.66L1404.35 -87.98" stroke="hsl(0, 0%, 100%)" stroke-width="1.5"></path><path d="M1310.73 -57.66L1298.56 48.17" stroke="hsl(0, 0%, 100%)" stroke-width="1.5"></path><path d="M1310.73 -57.66L1439.85 84.64" stroke="hsl(0, 0%, 100%)" stroke-width="1.5"></path><path d="M1310.73 -57.66L1162.41 85.87" stroke="hsl(0, 0%, 100%)" stroke-width="1.5"></path><path d="M1251.58 695.53L1251.58 695.53" stroke="hsl(0, 0%, 100%)" stroke-width="1.5"></path><path d="M1251.58 695.53L1290.86 528.08" stroke="hsl(0, 0%, 100%)" stroke-width="1.5"></path><path d="M1251.58 695.53L1453.92 517.35" stroke="hsl(0, 0%, 100%)" stroke-width="1.5"></path><path d="M1251.58 695.53L978.05 675.12" stroke="hsl(0, 0%, 100%)" stroke-width="1.5"></path><path d="M1571.49 94.73L1571.49 94.73" stroke="hsl(0, 0%, 100%)" stroke-width="1.5"></path><path d="M1571.49 94.73L1439.85 84.64" stroke="hsl(0, 0%, 100%)" stroke-width="1.5"></path><path d="M1571.49 94.73L1459.78 216.24" stroke="hsl(0, 0%, 100%)" stroke-width="1.5"></path><path d="M1571.49 94.73L1580.97 -109.71" stroke="hsl(0, 0%, 100%)" stroke-width="1.5"></path><path d="M-73.02 497.4L-73.02 497.4" stroke="hsl(0, 0%, 100%)" stroke-width="1.5"></path><path d="M-73.02 497.4L-56.81 701.84" stroke="hsl(0, 0%, 100%)" stroke-width="1.5"></path><path d="M-56.81 701.84L-56.81 701.84" stroke="hsl(0, 0%, 100%)" stroke-width="1.5"></path><path d="M-56.81 701.84L78.11 669.02" stroke="hsl(0, 0%, 100%)" stroke-width="1.5"></path><path d="M-56.81 701.84L194.16 544.22" stroke="hsl(0, 0%, 100%)" stroke-width="1.5"></path><path d="M-56.81 701.84L259.6 707.45" stroke="hsl(0, 0%, 100%)" stroke-width="1.5"></path><path d="M-56.81 701.84L355.08 673.33" stroke="hsl(0, 0%, 100%)" stroke-width="1.5"></path><path d="M78.11 669.02L78.11 669.02" stroke="hsl(0, 0%, 100%)" stroke-width="1.5"></path><path d="M78.11 669.02L194.16 544.22" stroke="hsl(0, 0%, 100%)" stroke-width="1.5"></path><path d="M78.11 669.02L259.6 707.45" stroke="hsl(0, 0%, 100%)" stroke-width="1.5"></path><path d="M78.11 669.02L-73.02 497.4" stroke="hsl(0, 0%, 100%)" stroke-width="1.5"></path><path d="M194.16 544.22L194.16 544.22" stroke="hsl(0, 0%, 100%)" stroke-width="1.5"></path><path d="M194.16 544.22L259.6 707.45" stroke="hsl(0, 0%, 100%)" stroke-width="1.5"></path><path d="M259.6 707.45L259.6 707.45" stroke="hsl(0, 0%, 100%)" stroke-width="1.5"></path><path d="M399.64 488.41L399.64 488.41" stroke="hsl(0, 0%, 100%)" stroke-width="1.5"></path><path d="M399.64 488.41L515.43 544.32" stroke="hsl(0, 0%, 100%)" stroke-width="1.5"></path><path d="M399.64 488.41L194.16 544.22" stroke="hsl(0, 0%, 100%)" stroke-width="1.5"></path><path d="M399.64 488.41L527.48 678.08" stroke="hsl(0, 0%, 100%)" stroke-width="1.5"></path><path d="M515.43 544.32L515.43 544.32" stroke="hsl(0, 0%, 100%)" stroke-width="1.5"></path><path d="M515.43 544.32L527.48 678.08" stroke="hsl(0, 0%, 100%)" stroke-width="1.5"></path><path d="M515.43 544.32L667.93 495.63" stroke="hsl(0, 0%, 100%)" stroke-width="1.5"></path><path d="M527.48 678.08L527.48 678.08" stroke="hsl(0, 0%, 100%)" stroke-width="1.5"></path><path d="M527.48 678.08L676.36 647.66" stroke="hsl(0, 0%, 100%)" stroke-width="1.5"></path><path d="M667.93 495.63L667.93 495.63" stroke="hsl(0, 0%, 100%)" stroke-width="1.5"></path><path d="M667.93 495.63L676.36 647.66" stroke="hsl(0, 0%, 100%)" stroke-width="1.5"></path><path d="M676.36 647.66L676.36 647.66" stroke="hsl(0, 0%, 100%)" stroke-width="1.5"></path><path d="M676.36 647.66L854.55 675.37" stroke="hsl(0, 0%, 100%)" stroke-width="1.5"></path><path d="M676.36 647.66L515.43 544.32" stroke="hsl(0, 0%, 100%)" stroke-width="1.5"></path><path d="M789.7 389.99L789.7 389.99" stroke="hsl(0, 0%, 100%)" stroke-width="1.5"></path><path d="M789.7 389.99L667.93 495.63" stroke="hsl(0, 0%, 100%)" stroke-width="1.5"></path><path d="M789.7 389.99L994.05 347.33" stroke="hsl(0, 0%, 100%)" stroke-width="1.5"></path><path d="M789.7 389.99L1002.78 527.23" stroke="hsl(0, 0%, 100%)" stroke-width="1.5"></path><path d="M789.7 389.99L676.36 647.66" stroke="hsl(0, 0%, 100%)" stroke-width="1.5"></path><path d="M789.7 389.99L854.55 675.37" stroke="hsl(0, 0%, 100%)" stroke-width="1.5"></path><path d="M854.55 675.37L854.55 675.37" stroke="hsl(0, 0%, 100%)" stroke-width="1.5"></path><path d="M854.55 675.37L978.05 675.12" stroke="hsl(0, 0%, 100%)" stroke-width="1.5"></path><path d="M854.55 675.37L1002.78 527.23" stroke="hsl(0, 0%, 100%)" stroke-width="1.5"></path><path d="M854.55 675.37L667.93 495.63" stroke="hsl(0, 0%, 100%)" stroke-width="1.5"></path><path d="M994.05 347.33L994.05 347.33" stroke="hsl(0, 0%, 100%)" stroke-width="1.5"></path><path d="M994.05 347.33L1136.42 362.14" stroke="hsl(0, 0%, 100%)" stroke-width="1.5"></path><path d="M994.05 347.33L1146.42 262.13" stroke="hsl(0, 0%, 100%)" stroke-width="1.5"></path><path d="M994.05 347.33L1002.78 527.23" stroke="hsl(0, 0%, 100%)" stroke-width="1.5"></path><path d="M1002.78 527.23L1002.78 527.23" stroke="hsl(0, 0%, 100%)" stroke-width="1.5"></path><path d="M1002.78 527.23L978.05 675.12" stroke="hsl(0, 0%, 100%)" stroke-width="1.5"></path><path d="M978.05 675.12L978.05 675.12" stroke="hsl(0, 0%, 100%)" stroke-width="1.5"></path><path d="M1162.41 85.87L1162.41 85.87" stroke="hsl(0, 0%, 100%)" stroke-width="1.5"></path><path d="M1162.41 85.87L1298.56 48.17" stroke="hsl(0, 0%, 100%)" stroke-width="1.5"></path><path d="M1146.42 262.13L1146.42 262.13" stroke="hsl(0, 0%, 100%)" stroke-width="1.5"></path><path d="M1146.42 262.13L1136.42 362.14" stroke="hsl(0, 0%, 100%)" stroke-width="1.5"></path><path d="M1146.42 262.13L1249.04 385.51" stroke="hsl(0, 0%, 100%)" stroke-width="1.5"></path><path d="M1146.42 262.13L1306.76 250.52" stroke="hsl(0, 0%, 100%)" stroke-width="1.5"></path><path d="M1146.42 262.13L1162.41 85.87" stroke="hsl(0, 0%, 100%)" stroke-width="1.5"></path><path d="M1146.42 262.13L1298.56 48.17" stroke="hsl(0, 0%, 100%)" stroke-width="1.5"></path><path d="M1136.42 362.14L1136.42 362.14" stroke="hsl(0, 0%, 100%)" stroke-width="1.5"></path><path d="M1136.42 362.14L1249.04 385.51" stroke="hsl(0, 0%, 100%)" stroke-width="1.5"></path><path d="M1136.42 362.14L1306.76 250.52" stroke="hsl(0, 0%, 100%)" stroke-width="1.5"></path><path d="M1136.42 362.14L1002.78 527.23" stroke="hsl(0, 0%, 100%)" stroke-width="1.5"></path><path d="M1136.42 362.14L1290.86 528.08" stroke="hsl(0, 0%, 100%)" stroke-width="1.5"></path><path d="M1298.56 48.17L1298.56 48.17" stroke="hsl(0, 0%, 100%)" stroke-width="1.5"></path><path d="M1298.56 48.17L1439.85 84.64" stroke="hsl(0, 0%, 100%)" stroke-width="1.5"></path><path d="M1298.56 48.17L1404.35 -87.98" stroke="hsl(0, 0%, 100%)" stroke-width="1.5"></path><path d="M1306.76 250.52L1306.76 250.52" stroke="hsl(0, 0%, 100%)" stroke-width="1.5"></path><path d="M1306.76 250.52L1249.04 385.51" stroke="hsl(0, 0%, 100%)" stroke-width="1.5"></path><path d="M1306.76 250.52L1459.78 216.24" stroke="hsl(0, 0%, 100%)" stroke-width="1.5"></path><path d="M1306.76 250.52L1407.7 403.73" stroke="hsl(0, 0%, 100%)" stroke-width="1.5"></path><path d="M1306.76 250.52L1298.56 48.17" stroke="hsl(0, 0%, 100%)" stroke-width="1.5"></path><path d="M1249.04 385.51L1249.04 385.51" stroke="hsl(0, 0%, 100%)" stroke-width="1.5"></path><path d="M1290.86 528.08L1290.86 528.08" stroke="hsl(0, 0%, 100%)" stroke-width="1.5"></path><path d="M1290.86 528.08L1249.04 385.51" stroke="hsl(0, 0%, 100%)" stroke-width="1.5"></path><path d="M1290.86 528.08L1453.92 517.35" stroke="hsl(0, 0%, 100%)" stroke-width="1.5"></path><path d="M1404.35 -87.98L1404.35 -87.98" stroke="hsl(0, 0%, 100%)" stroke-width="1.5"></path><path d="M1404.35 -87.98L1439.85 84.64" stroke="hsl(0, 0%, 100%)" stroke-width="1.5"></path><path d="M1404.35 -87.98L1580.97 -109.71" stroke="hsl(0, 0%, 100%)" stroke-width="1.5"></path><path d="M1404.35 -87.98L1571.49 94.73" stroke="hsl(0, 0%, 100%)" stroke-width="1.5"></path><path d="M1404.35 -87.98L1162.41 85.87" stroke="hsl(0, 0%, 100%)" stroke-width="1.5"></path><path d="M1439.85 84.64L1439.85 84.64" stroke="hsl(0, 0%, 100%)" stroke-width="1.5"></path><path d="M1439.85 84.64L1459.78 216.24" stroke="hsl(0, 0%, 100%)" stroke-width="1.5"></path><path d="M1439.85 84.64L1306.76 250.52" stroke="hsl(0, 0%, 100%)" stroke-width="1.5"></path><path d="M1459.78 216.24L1459.78 216.24" stroke="hsl(0, 0%, 100%)" stroke-width="1.5"></path><path d="M1459.78 216.24L1407.7 403.73" stroke="hsl(0, 0%, 100%)" stroke-width="1.5"></path><path d="M1459.78 216.24L1588.75 388.25" stroke="hsl(0, 0%, 100%)" stroke-width="1.5"></path><path d="M1407.7 403.73L1407.7 403.73" stroke="hsl(0, 0%, 100%)" stroke-width="1.5"></path><path d="M1407.7 403.73L1453.92 517.35" stroke="hsl(0, 0%, 100%)" stroke-width="1.5"></path><path d="M1453.92 517.35L1453.92 517.35" stroke="hsl(0, 0%, 100%)" stroke-width="1.5"></path><path d="M1453.92 517.35L1575.02 518.41" stroke="hsl(0, 0%, 100%)" stroke-width="1.5"></path><path d="M1580.97 -109.71L1580.97 -109.71" stroke="hsl(0, 0%, 100%)" stroke-width="1.5"></path><path d="M1580.97 -109.71L1439.85 84.64" stroke="hsl(0, 0%, 100%)" stroke-width="1.5"></path><path d="M1580.97 -109.71L1310.73 -57.66" stroke="hsl(0, 0%, 100%)" stroke-width="1.5"></path><path d="M1588.75 388.25L1588.75 388.25" stroke="hsl(0, 0%, 100%)" stroke-width="1.5"></path><path d="M1588.75 388.25L1575.02 518.41" stroke="hsl(0, 0%, 100%)" stroke-width="1.5"></path><path d="M1588.75 388.25L1407.7 403.73" stroke="hsl(0, 0%, 100%)" stroke-width="1.5"></path><path d="M1575.02 518.41L1575.02 518.41" stroke="hsl(0, 0%, 100%)" stroke-width="1.5"></path><path d="M1575.02 518.41L1545.62 687.65" stroke="hsl(0, 0%, 100%)" stroke-width="1.5"></path><path d="M1575.02 518.41L1407.7 403.73" stroke="hsl(0, 0%, 100%)" stroke-width="1.5"></path><path d="M1575.02 518.41L1290.86 528.08" stroke="hsl(0, 0%, 100%)" stroke-width="1.5"></path><path d="M1545.62 687.65L1545.62 687.65" stroke="hsl(0, 0%, 100%)" stroke-width="1.5"></path><path d="M1545.62 687.65L1453.92 517.35" stroke="hsl(0, 0%, 100%)" stroke-width="1.5"></path><path d="M1545.62 687.65L1251.58 695.53" stroke="hsl(0, 0%, 100%)" stroke-width="1.5"></path><path d="M1545.62 687.65L1290.86 528.08" stroke="hsl(0, 0%, 100%)" stroke-width="1.5"></path><path d="M1545.62 687.65L1588.75 388.25" stroke="hsl(0, 0%, 100%)" stroke-width="1.5"></path><path d="M1545.62 687.65L1407.7 403.73" stroke="hsl(0, 0%, 100%)" stroke-width="1.5"></path><circle r="25" cx="108.76" cy="532.34" fill="url(&quot;#SvgjsRadialGradient3257&quot;)"></circle><circle r="25" cx="355.08" cy="673.33" fill="url(&quot;#SvgjsRadialGradient3257&quot;)"></circle><circle r="25" cx="850.2" cy="514.78" fill="url(&quot;#SvgjsRadialGradient3257&quot;)"></circle><circle r="25" cx="1310.73" cy="-57.66" fill="url(&quot;#SvgjsRadialGradient3257&quot;)"></circle><circle r="25" cx="1251.58" cy="695.53" fill="url(&quot;#SvgjsRadialGradient3257&quot;)"></circle><circle r="25" cx="1571.49" cy="94.73" fill="url(&quot;#SvgjsRadialGradient3257&quot;)"></circle><circle r="5" cx="-73.02" cy="497.4" fill="#ffffff"></circle><circle r="5" cx="-56.81" cy="701.84" fill="#ffffff"></circle><circle r="5" cx="78.11" cy="669.02" fill="#ffffff"></circle><circle r="5" cx="194.16" cy="544.22" fill="#ffffff"></circle><circle r="5" cx="259.6" cy="707.45" fill="#ffffff"></circle><circle r="5" cx="399.64" cy="488.41" fill="#ffffff"></circle><circle r="5" cx="515.43" cy="544.32" fill="#ffffff"></circle><circle r="5" cx="527.48" cy="678.08" fill="#ffffff"></circle><circle r="5" cx="667.93" cy="495.63" fill="#ffffff"></circle><circle r="5" cx="676.36" cy="647.66" fill="#ffffff"></circle><circle r="5" cx="789.7" cy="389.99" fill="#ffffff"></circle><circle r="5" cx="854.55" cy="675.37" fill="#ffffff"></circle><circle r="5" cx="994.05" cy="347.33" fill="#ffffff"></circle><circle r="5" cx="1002.78" cy="527.23" fill="#ffffff"></circle><circle r="5" cx="978.05" cy="675.12" fill="#ffffff"></circle><circle r="5" cx="1162.41" cy="85.87" fill="#ffffff"></circle><circle r="5" cx="1146.42" cy="262.13" fill="#ffffff"></circle><circle r="5" cx="1136.42" cy="362.14" fill="#ffffff"></circle><circle r="5" cx="1298.56" cy="48.17" fill="#ffffff"></circle><circle r="5" cx="1306.76" cy="250.52" fill="#ffffff"></circle><circle r="5" cx="1249.04" cy="385.51" fill="#ffffff"></circle><circle r="5" cx="1290.86" cy="528.08" fill="#ffffff"></circle><circle r="5" cx="1404.35" cy="-87.98" fill="#ffffff"></circle><circle r="5" cx="1439.85" cy="84.64" fill="#ffffff"></circle><circle r="5" cx="1459.78" cy="216.24" fill="#ffffff"></circle><circle r="5" cx="1407.7" cy="403.73" fill="#ffffff"></circle><circle r="5" cx="1453.92" cy="517.35" fill="#ffffff"></circle><circle r="5" cx="1580.97" cy="-109.71" fill="#ffffff"></circle><circle r="5" cx="1588.75" cy="388.25" fill="#ffffff"></circle><circle r="5" cx="1575.02" cy="518.41" fill="#ffffff"></circle><circle r="5" cx="1545.62" cy="687.65" fill="#ffffff"></circle></g><defs><mask id="SvgjsMask3255"><rect width="1440" height="560" fill="#ffffff"></rect></mask><linearGradient x1="15.28%" y1="-39.29%" x2="84.72%" y2="139.29%" gradientUnits="userSpaceOnUse" id="SvgjsLinearGradient3256"><stop stop-color="rgba(255, 255, 255, 1)" offset="0.33"></stop><stop stop-color="rgba(170, 170, 170, 1)" offset="0.7"></stop></linearGradient><radialGradient id="SvgjsRadialGradient3257"><stop stop-color="#ffffff" offset="0.1"></stop><stop stop-color="rgba(255, 255, 255, 1)" offset="0.2"></stop><stop stop-color="rgba(255, 255, 255, 0)" offset="1"></stop></radialGradient></defs></svg>