<?xml version="1.0" standalone="no"?>
<!DOCTYPE svg PUBLIC "-//W3C//DTD SVG 20010904//EN"
 "http://www.w3.org/TR/2001/REC-SVG-20010904/DTD/svg10.dtd">
<svg version="1.0" xmlns="http://www.w3.org/2000/svg"
 width="500.000000pt" height="500.000000pt" viewBox="0 0 500.000000 500.000000"
 preserveAspectRatio="xMidYMid meet">

<g transform="translate(0.000000,500.000000) scale(0.100000,-0.100000)"
fill="#000000" stroke="none">
<path d="M2320 4384 c-187 -23 -329 -57 -486 -119 -822 -321 -1302 -1129
-1189 -2002 69 -530 354 -989 805 -1295 491 -333 1096 -416 1655 -227 250 85
500 238 699 429 498 478 684 1171 501 1864 -46 173 -157 405 -269 561 -191
267 -427 465 -728 610 -262 126 -468 175 -763 180 -104 2 -206 1 -225 -1z
m505 -282 c143 -32 252 -70 370 -127 470 -227 782 -622 897 -1137 20 -90 23
-130 23 -318 0 -273 -20 -384 -114 -619 -145 -363 -429 -663 -796 -841 -137
-66 -221 -93 -430 -140 -74 -17 -445 -26 -445 -11 0 6 8 15 18 18 9 4 55 32
102 64 102 68 234 190 316 291 32 40 62 75 65 78 3 3 33 46 67 96 176 263 284
560 341 934 25 163 34 331 28 526 l-6 204 167 2 166 3 -155 160 c-86 88 -201
206 -255 263 -54 56 -103 101 -109 100 -9 -3 -150 -148 -449 -465 l-59 -63
166 0 167 0 0 -47 c0 -148 -42 -443 -85 -609 -106 -403 -275 -705 -545 -974
-158 -159 -303 -265 -474 -349 l-84 -41 -56 32 c-31 18 -56 35 -56 38 0 3 31
18 69 33 157 63 329 185 474 337 120 125 184 215 252 355 109 226 126 449 45
580 -52 84 -177 159 -292 175 -34 5 -64 7 -66 5 -3 -2 0 -24 6 -47 6 -24 16
-88 23 -143 21 -179 -25 -389 -133 -597 -55 -105 -156 -246 -240 -335 -58 -60
-212 -187 -269 -221 l-36 -22 -24 26 -24 26 25 17 c45 30 174 148 215 196 141
168 202 318 192 468 -8 117 -53 182 -160 231 -39 18 -154 43 -161 35 -2 -2 3
-35 11 -74 33 -154 1 -352 -79 -495 -38 -68 -117 -177 -152 -209 -31 -30 -29
-31 -110 82 -65 92 -163 288 -201 402 -15 44 -38 132 -52 195 -22 101 -25 139
-26 315 -1 227 15 330 79 524 112 338 341 636 639 834 118 77 285 157 410 195
94 29 135 38 260 62 28 5 142 7 255 5 161 -2 225 -7 295 -23z"/>
</g>
</svg>
