<?xml version="1.0" standalone="no"?>
<!DOCTYPE svg PUBLIC "-//W3C//DTD SVG 20010904//EN"
 "http://www.w3.org/TR/2001/REC-SVG-20010904/DTD/svg10.dtd">
<svg version="1.0" xmlns="http://www.w3.org/2000/svg"
 width="1024.000000pt" height="1024.000000pt" viewBox="0 0 1024.000000 1024.000000"
 preserveAspectRatio="xMidYMid meet">

<g transform="translate(0.000000,1024.000000) scale(0.100000,-0.100000)"
fill="#000000" stroke="none">
<path d="M4707 9334 c-846 -88 -1622 -412 -2247 -938 -259 -217 -433 -400
-638 -668 -42 -55 -123 -167 -139 -193 -7 -11 -47 -74 -89 -140 -141 -223
-315 -599 -404 -875 -45 -139 -46 -144 -79 -280 -61 -250 -89 -456 -112 -802
-22 -350 32 -894 126 -1240 8 -32 21 -82 29 -112 99 -375 345 -890 584 -1222
106 -147 149 -201 284 -354 81 -92 191 -207 245 -255 54 -48 105 -95 113 -104
14 -16 121 -104 200 -166 131 -102 386 -278 430 -298 8 -3 47 -26 85 -51 99
-63 361 -192 518 -255 101 -41 219 -80 392 -130 172 -50 246 -65 406 -86 68
-9 171 -23 229 -30 123 -17 904 -20 1060 -5 119 12 226 28 265 40 17 5 68 16
115 25 164 30 536 141 655 194 22 10 51 22 64 26 43 13 405 201 479 248 40 26
74 47 77 47 8 0 90 55 193 130 57 41 113 82 126 90 35 24 195 159 261 221 33
31 87 80 119 109 106 95 365 390 438 500 9 14 45 63 79 110 34 47 77 112 96
145 19 33 52 89 74 125 36 57 87 158 165 325 54 117 226 604 259 735 8 30 27
107 43 170 17 63 40 171 52 240 12 69 29 163 37 210 13 67 16 161 17 445 1
319 -2 377 -21 510 -12 83 -27 195 -33 250 -7 55 -30 165 -52 245 -22 80 -42
156 -44 170 -3 14 -9 34 -14 45 -4 11 -15 43 -23 70 -42 134 -116 323 -181
460 -42 88 -178 336 -214 391 -73 112 -157 235 -187 274 -19 25 -43 56 -52 70
-74 106 -340 396 -472 513 -466 417 -827 633 -1421 851 -162 59 -420 130 -585
160 -337 63 -497 76 -874 75 -175 -1 -361 -7 -434 -15z m820 -659 c285 -31
514 -81 778 -170 973 -326 1789 -1120 2141 -2083 272 -745 267 -1638 -13
-2392 -266 -717 -793 -1352 -1449 -1747 -336 -203 -704 -348 -1139 -448 -25
-5 -9 15 101 127 447 459 774 969 949 1481 19 56 46 136 60 177 50 143 98 363
140 635 39 248 47 472 54 1380 l6 850 283 5 284 5 -64 79 c-34 43 -74 93 -88
111 -14 18 -59 76 -100 129 -41 54 -88 115 -105 135 -67 85 -161 205 -179 230
-11 14 -34 43 -50 63 -17 20 -46 56 -64 80 -19 24 -64 82 -100 129 -37 47 -85
110 -107 139 -74 97 -115 145 -125 145 -5 0 -29 -26 -52 -57 -76 -101 -480
-624 -701 -908 l-214 -275 36 -7 c20 -4 144 -7 276 -7 l240 -1 -2 -72 c-2 -40
-5 -363 -7 -718 -4 -657 -11 -818 -47 -1110 -85 -701 -318 -1276 -720 -1781
-253 -317 -611 -610 -1034 -846 -139 -78 -153 -84 -192 -78 -48 7 -220 48
-301 71 l-53 16 148 85 c189 109 367 227 513 339 164 127 445 410 560 564 361
487 547 1040 590 1750 11 186 13 764 3 913 l-6 97 -301 0 c-326 0 -359 -4
-465 -57 -73 -36 -167 -132 -209 -210 -54 -103 -62 -162 -62 -489 0 -510 -37
-802 -142 -1118 -45 -138 -163 -389 -233 -497 -240 -371 -570 -654 -1071 -919
l-101 -54 -65 52 c-102 81 -103 71 11 151 318 225 590 504 758 774 71 116 183
346 221 458 78 224 112 462 119 842 l6 279 -304 -4 c-300 -4 -305 -4 -373 -30
-124 -48 -222 -131 -285 -242 -53 -94 -63 -143 -71 -381 -5 -121 -16 -260 -25
-310 -60 -343 -211 -624 -485 -909 l-126 -129 -97 121 c-459 571 -697 1142
-772 1847 -17 165 -20 575 -4 726 56 547 241 1077 525 1497 27 40 54 81 59 90
11 18 132 178 192 252 53 67 224 244 324 336 539 498 1236 805 2029 893 132
15 547 12 697 -4z"/>
</g>
</svg>
